<svg height="512pt" viewBox="0 0 512 512" width="512pt" xmlns="http://www.w3.org/2000/svg">
<path d="m420.328125 7.605469h-328.65625c-46.429687 0-84.066406 37.636719-84.066406 84.066406v328.65625c0 46.429687 37.636719 84.066406 84.066406 84.066406h328.65625c46.429687 0 84.066406-37.636719 84.066406-84.066406v-328.65625c0-46.429687-37.636719-84.066406-84.066406-84.066406zm0 0" fill="#1a94ba"/>
<path d="m91.671875 483.105469c-34.613281 0-62.777344-28.164063-62.777344-62.777344v-328.65625c0-34.613281 28.164063-62.777344 62.777344-62.777344h328.65625c34.617187 0 62.777344 28.164063 62.777344 62.777344v328.65625c0 34.613281-28.164063 62.777344-62.777344 62.777344zm0 0" fill="#6dccf2"/>
<path d="m317.402344 147.347656c0 32.816406-26.605469 59.417969-59.421875 59.417969-32.816407 0-59.417969-26.601563-59.417969-59.417969s26.601562-59.421875 59.417969-59.421875c32.816406 0 59.421875 26.605469 59.421875 59.421875zm0 0" fill="#fff"/>
<path d="m328.894531 376.507812c-7.789062 0-14.101562-6.3125-14.101562-14.101562v-109.207031c0-7.785157-6.3125-14.097657-14.097657-14.097657h-126.382812c-7.789062 0-14.101562 6.3125-14.101562 14.097657v19.367187c0 7.785156 6.3125 14.097656 14.101562 14.097656h12.757812c7.785157 0 14.097657 6.3125 14.097657 14.101563v61.640625c0 7.789062-6.3125 14.101562-14.097657 14.101562h-8.796874c-7.785157 0-14.097657 6.3125-14.097657 14.097657v19.363281c0 7.789062 6.3125 14.101562 14.097657 14.101562h159.414062c7.789062 0 14.101562-6.3125 14.101562-14.101562v-19.363281c0-7.785157-6.316406-14.097657-14.101562-14.097657zm0 0" fill="#fff"/>
<path d="m420.328125 0h-50.695313c-4.199218 0-7.605468 3.40625-7.605468 7.605469s3.40625 7.601562 7.605468 7.601562h50.695313c42.160156 0 76.464844 34.304688 76.464844 76.464844v328.65625c0 42.160156-34.304688 76.464844-76.464844 76.464844h-328.65625c-42.160156 0-76.464844-34.304688-76.464844-76.464844v-328.65625c0-42.160156 34.304688-76.464844 76.464844-76.464844h247.542969c4.199218 0 7.601562-3.402343 7.601562-7.601562s-3.402344-7.605469-7.601562-7.605469h-247.542969c-50.546875 0-91.671875 41.125-91.671875 91.671875v328.65625c0 50.546875 41.125 91.671875 91.671875 91.671875h328.65625c50.546875 0 91.671875-41.125 91.671875-91.671875v-328.65625c0-50.546875-41.125-91.671875-91.671875-91.671875zm0 0"/>
<path d="m257.980469 214.371094c36.957031 0 67.023437-30.066406 67.023437-67.023438 0-36.957031-30.066406-67.023437-67.023437-67.023437-36.953125 0-67.019531 30.066406-67.019531 67.023437-.003907 36.957032 30.0625 67.023438 67.019531 67.023438zm0-118.839844c28.574219 0 51.816406 23.246094 51.816406 51.816406 0 28.570313-23.242187 51.8125-51.816406 51.8125-28.570313 0-51.8125-23.242187-51.8125-51.8125 0-28.570312 23.242187-51.816406 51.8125-51.816406zm0 0"/>
<path d="m328.894531 368.902344c-3.582031 0-6.496093-2.914063-6.496093-6.496094v-109.207031c0-11.964844-9.738282-21.703125-21.703126-21.703125h-81.683593c-4.199219 0-7.605469 3.40625-7.605469 7.605468 0 4.199219 3.40625 7.601563 7.605469 7.601563h81.683593c3.582032 0 6.496094 2.914063 6.496094 6.496094v109.207031c0 11.96875 9.734375 21.707031 21.703125 21.707031h8.792969c3.582031 0 6.496094 2.914063 6.496094 6.496094v19.363281c0 3.582032-2.914063 6.496094-6.496094 6.496094h-159.414062c-3.582032 0-6.496094-2.914062-6.496094-6.496094v-19.363281c0-3.582031 2.917968-6.496094 6.496094-6.496094h8.796874c11.964844 0 21.703126-9.738281 21.703126-21.707031v-61.640625c0-11.96875-9.738282-21.703125-21.703126-21.703125h-12.757812c-3.582031 0-6.5-2.914062-6.5-6.496094v-19.363281c0-3.582031 2.917969-6.5 6.5-6.5h14.28125c4.199219 0 7.605469-3.402344 7.605469-7.601563 0-4.199218-3.40625-7.605468-7.605469-7.605468h-14.28125c-11.96875 0-21.707031 9.738281-21.707031 21.707031v19.363281c0 11.964844 9.738281 21.703125 21.707031 21.703125h12.757812c3.582032 0 6.492188 2.914063 6.492188 6.496094v61.640625c0 3.582031-2.914062 6.5-6.492188 6.5h-8.796874c-11.964844 0-21.703126 9.734375-21.703126 21.703125v19.363281c0 11.96875 9.738282 21.703125 21.703126 21.703125h159.414062c11.96875 0 21.703125-9.734375 21.703125-21.703125v-19.363281c0-11.96875-9.734375-21.703125-21.703125-21.703125h-8.792969zm0 0"/>
</svg>