<?xml version="1.0" encoding="utf-8"?>
<!-- Generator: Adobe Illustrator 24.1.1, SVG Export Plug-In . SVG Version: 6.00 Build 0)  -->
<svg version="1.1" id="Layer_1" xmlns="http://www.w3.org/2000/svg" xmlns:xlink="http://www.w3.org/1999/xlink" x="0px" y="0px"
	 viewBox="0 0 512 512" style="enable-background:new 0 0 512 512;" xml:space="preserve">
<style type="text/css">
	.st0{fill:#1A94BA;}
	.st1{fill:#6DCCF2;}
	.st2{fill:#FFFFFF;}
</style>
<path class="st0" d="M420.3,7.6H91.7C45.2,7.6,7.6,45.2,7.6,91.7v328.7c0,46.4,37.6,84.1,84.1,84.1h328.7
	c46.4,0,84.1-37.6,84.1-84.1V91.7C504.4,45.2,466.8,7.6,420.3,7.6z"/>
<path class="st1" d="M91.7,483.1c-34.6,0-62.8-28.2-62.8-62.8V91.7c0-34.6,28.2-62.8,62.8-62.8h328.7c34.6,0,62.8,28.2,62.8,62.8
	v328.7c0,34.6-28.2,62.8-62.8,62.8H91.7z"/>
<path class="st2" d="M317.4,147.3c0,32.8-26.6,59.4-59.4,59.4s-59.4-26.6-59.4-59.4s26.6-59.4,59.4-59.4S317.4,114.5,317.4,147.3z"
	/>
<path class="st2" d="M328.9,376.5c-7.8,0-14.1-6.3-14.1-14.1V253.2c0-7.8-6.3-14.1-14.1-14.1H174.3c-7.8,0-14.1,6.3-14.1,14.1v19.4
	c0,7.8,6.3,14.1,14.1,14.1h12.8c7.8,0,14.1,6.3,14.1,14.1v61.6c0,7.8-6.3,14.1-14.1,14.1h-8.8c-7.8,0-14.1,6.3-14.1,14.1V410
	c0,7.8,6.3,14.1,14.1,14.1h159.4c7.8,0,14.1-6.3,14.1-14.1v-19.4c0-7.8-6.3-14.1-14.1-14.1H328.9z"/>
<path d="M379.2,0H91.7C41.1,0,0,41.1,0,91.7v328.7C0,470.9,41.1,512,91.7,512h328.7c50.5,0,91.7-41.1,91.7-91.7V91.7
	C512,41.1,470.9,0,420.3,0h-50.7c-4.2,0-7.6,3.4-7.6,7.6s3.4,7.6,7.6,7.6h50.7c42.2,0,76.5,34.3,76.5,76.5v328.7
	c0,42.2-34.3,76.5-76.5,76.5H91.7c-42.2,0-76.5-34.3-76.5-76.5V91.7c0-42.2,34.3-76.5,76.5-76.5h287.5"/>
<path d="M258,214.4c37,0,67-30.1,67-67s-30.1-67-67-67c-37,0-67,30.1-67,67C191,184.3,221,214.4,258,214.4z M258,95.5
	c28.6,0,51.8,23.2,51.8,51.8s-23.2,51.8-51.8,51.8c-28.6,0-51.8-23.2-51.8-51.8S229.4,95.5,258,95.5z"/>
<path d="M183,246.7h117.7c3.6,0,6.5,2.9,6.5,6.5v109.2c0,12,9.7,21.7,21.7,21.7h8.8c3.6,0,6.5,2.9,6.5,6.5V410
	c0,3.6-2.9,6.5-6.5,6.5H178.3c-3.6,0-6.5-2.9-6.5-6.5v-19.4c0-3.6,2.9-6.5,6.5-6.5h8.8c12,0,21.7-9.7,21.7-21.7v-61.6
	c0-12-9.7-21.7-21.7-21.7h-12.8c-3.6,0-6.5-2.9-6.5-6.5v-19.4c0-3.6,2.9-6.5,6.5-6.5h14.3c4.2,0,7.6-3.4,7.6-7.6s-3.4-7.6-7.6-7.6
	h-14.3c-12,0-21.7,9.7-21.7,21.7v19.4c0,12,9.7,21.7,21.7,21.7h12.8c3.6,0,6.5,2.9,6.5,6.5v61.6c0,3.6-2.9,6.5-6.5,6.5h-8.8
	c-12,0-21.7,9.7-21.7,21.7V410c0,12,9.7,21.7,21.7,21.7h159.4c12,0,21.7-9.7,21.7-21.7v-19.4c0-12-9.7-21.7-21.7-21.7h-8.8v0
	c-3.6,0-6.5-2.9-6.5-6.5V253.2c0-12-9.7-21.7-21.7-21.7H183"/>
</svg>
